{
  "asset": {
    "extras": {
      "author": "jhag (https://sketchfab.com/jhag)",
      "license": "CC-BY-4.0 (http://creativecommons.org/licenses/by/4.0/)",
      "source": "https://sketchfab.com/3d-models/airbus-a350-cfa2836ead8c4278a199a7d34a87f02e",
      "title": "Airbus A350"
    },
    "generator": "gltfeditor.com",
    "version": "2.0"
  },
  "buffers": [
    {
      "uri": "Sketchfab_Scene.bin",
      "byteLength": 183116
    }
  ],
  "bufferViews": [
    {
      "buffer": 0,
      "byteOffset": 0,
      "byteLength": 24144,
      "byteStride": 24,
      "target": 34962
    },
    {
      "buffer": 0,
      "byteOffset": 24144,
      "byteLength": 8048,
      "byteStride": 8,
      "target": 34962
    },
    {
      "buffer": 0,
      "byteOffset": 32192,
      "byteLength": 14916,
      "target": 34963
    },
    {
      "buffer": 0,
      "byteOffset": 47108,
      "byteLength": 65880,
      "byteStride": 24,
      "target": 34962
    },
    {
      "buffer": 0,
      "byteOffset": 112988,
      "byteLength": 21960,
      "byteStride": 8,
      "target": 34962
    },
    {
      "buffer": 0,
      "byteOffset": 134948,
      "byteLength": 48168,
      "target": 34963
    }
  ],
  "accessors": [
    {
      "bufferView": 0,
      "byteOffset": 0,
      "componentType": 5126,
      "normalized": false,
      "count": 1006,
      "min": [
        -0.9998324513435364,
        -0.7770712971687317,
        -0.999971866607666
      ],
      "max": [
        0.9998324513435364,
        1,
        0.9997753500938416
      ],
      "type": "VEC3"
    },
    {
      "bufferView": 0,
      "byteOffset": 12,
      "componentType": 5126,
      "normalized": false,
      "count": 1006,
      "min": [
        -1302.911865234375,
        -470.894287109375,
        -159.87759399414062
      ],
      "max": [
        1302.9124755859375,
        1344.287841796875,
        491.7076110839844
      ],
      "type": "VEC3"
    },
    {
      "bufferView": 1,
      "byteOffset": 0,
      "componentType": 5126,
      "normalized": false,
      "count": 1006,
      "min": [
        0.002300000051036477,
        -0.0035000001080334187
      ],
      "max": [
        0.9961000084877014,
        0.6177999973297119
      ],
      "type": "VEC2"
    },
    {
      "bufferView": 2,
      "byteOffset": 0,
      "componentType": 5125,
      "normalized": false,
      "count": 3729,
      "min": [
        0
      ],
      "max": [
        1005
      ],
      "type": "SCALAR"
    },
    {
      "bufferView": 3,
      "byteOffset": 0,
      "componentType": 5126,
      "normalized": false,
      "count": 2745,
      "min": [
        -1,
        -1,
        -0.9999996423721313
      ],
      "max": [
        1,
        1,
        1
      ],
      "type": "VEC3"
    },
    {
      "bufferView": 3,
      "byteOffset": 12,
      "componentType": 5126,
      "normalized": false,
      "count": 2745,
      "min": [
        -1302.911865234375,
        -1342.3955078125,
        -172.7805938720703
      ],
      "max": [
        1302.9124755859375,
        1344.287841796875,
        491.7076110839844
      ],
      "type": "VEC3"
    },
    {
      "bufferView": 4,
      "byteOffset": 0,
      "componentType": 5126,
      "normalized": false,
      "count": 2745,
      "min": [
        0.0010000000474974513,
        -0.0035000001080334187
      ],
      "max": [
        0.998199999332428,
        0.9980999827384949
      ],
      "type": "VEC2"
    },
    {
      "bufferView": 5,
      "byteOffset": 0,
      "componentType": 5125,
      "normalized": false,
      "count": 12042,
      "min": [
        0
      ],
      "max": [
        2744
      ],
      "type": "SCALAR"
    }
  ],
  "scene": 0,
  "scenes": [
    {
      "nodes": [
        9
      ],
      "name": "Sketchfab_Scene"
    }
  ],
  "nodes": [
    {
      "name": "Object_7",
      "extensions": {
        "KHR_node_visibility": {
          "visible": true
        }
      },
      "mesh": 0
    },
    {
      "name": "_3",
      "children": [
        0
      ],
      "extensions": {
        "KHR_node_visibility": {
          "visible": true
        }
      }
    },
    {
      "name": "Object_9",
      "extensions": {
        "KHR_node_visibility": {
          "visible": true
        }
      },
      "mesh": 1
    },
    {
      "name": "_4",
      "children": [
        2
      ],
      "extensions": {
        "KHR_node_visibility": {
          "visible": true
        }
      }
    },
    {
      "name": "b54c0b09d9dd4dc4951424da5b0121b5.obj.cleaner_2",
      "children": [
        1,
        3
      ],
      "extensions": {
        "KHR_node_visibility": {
          "visible": true
        }
      }
    },
    {
      "name": "RootNode (model correction matrix)_1",
      "children": [
        4
      ],
      "extensions": {
        "KHR_node_visibility": {
          "visible": true
        }
      }
    },
    {
      "name": "RootNode (gltf orientation matrix)_0",
      "children": [
        5
      ],
      "matrix": [
        1,
        0,
        0,
        0,
        0,
        3.422854177870249e-8,
        -0.9999999403953552,
        0,
        0,
        0.9999999403953552,
        3.422854177870249e-8,
        0,
        0,
        0,
        0,
        1
      ],
      "extensions": {
        "KHR_node_visibility": {
          "visible": true
        }
      }
    },
    {
      "name": "GLTF_SceneRootNode",
      "children": [
        6
      ],
      "matrix": [
        1,
        0,
        0,
        0,
        0,
        3.422854177870249e-8,
        0.9999999403953552,
        0,
        0,
        -0.9999999403953552,
        3.422854177870249e-8,
        0,
        0,
        0,
        0,
        1
      ],
      "extensions": {
        "KHR_node_visibility": {
          "visible": true
        }
      }
    },
    {
      "name": "root",
      "children": [
        7
      ],
      "extensions": {
        "KHR_node_visibility": {
          "visible": true
        }
      }
    },
    {
      "name": "Sketchfab_model",
      "children": [
        8
      ],
      "matrix": [
        1,
        0,
        0,
        0,
        0,
        3.422854177870249e-8,
        -0.9999999403953552,
        0,
        0,
        0.9999999403953552,
        3.422854177870249e-8,
        0,
        0,
        0,
        0,
        1
      ],
      "extensions": {
        "KHR_node_visibility": {
          "visible": true
        }
      }
    }
  ],
  "meshes": [
    {
      "primitives": [
        {
          "material": 0,
          "mode": 4,
          "attributes": {
            "NORMAL": 0,
            "POSITION": 1,
            "TEXCOORD_0": 2
          },
          "indices": 3
        }
      ]
    },
    {
      "primitives": [
        {
          "material": 0,
          "mode": 4,
          "attributes": {
            "NORMAL": 4,
            "POSITION": 5,
            "TEXCOORD_0": 6
          },
          "indices": 7
        }
      ]
    }
  ],
  "materials": [
    {
      "name": "07___Default",
      "pbrMetallicRoughness": {
        "baseColorFactor": [
          1,
          1,
          1,
          1
        ],
        "metallicFactor": 0,
        "roughnessFactor": 0.15314588159470777,
        "baseColorTexture": {
          "index": 0,
          "texCoord": 0
        }
      },
      "emissiveFactor": [
        0,
        0,
        0
      ],
      "alphaMode": "OPAQUE",
      "doubleSided": false
    }
  ],
  "textures": [
    {
      "sampler": 0,
      "name": "base.jpg",
      "source": 0
    }
  ],
  "samplers": [
    {
      "magFilter": 9729,
      "minFilter": 9987,
      "wrapS": 10497,
      "wrapT": 10497
    }
  ],
  "images": [
    {
      "uri": "base.jpg",
      "mimeType": "image/jpeg",
      "name": "base.jpg"
    }
  ],
  "extensionsUsed": [
    "KHR_node_visibility"
  ]
}